<svg width="32" height="32" viewBox="0 0 32 32" fill="none" xmlns="http://www.w3.org/2000/svg">
<g clip-path="url(#clip0_1387_73525)">
<g clip-path="url(#clip1_1387_73525)">
<path d="M12.2893 12.3771V9.5612C12.2893 9.32404 12.3782 9.1461 12.5857 9.02766L18.2471 5.76722C19.0179 5.32265 19.9368 5.11524 20.8851 5.11524C24.442 5.11524 26.6948 7.8719 26.6948 10.8062C26.6948 11.0136 26.6948 11.2508 26.665 11.4879L20.7961 8.04956C20.4405 7.84215 20.0847 7.84215 19.729 8.04956L12.2893 12.3771ZM25.5089 23.3442V16.6156C25.5089 16.2005 25.3311 15.9042 24.9755 15.6967L17.5357 11.3692L19.9662 9.97602C20.1737 9.85757 20.3516 9.85757 20.559 9.97602L26.2205 13.2365C27.8508 14.1851 28.9474 16.2005 28.9474 18.1567C28.9474 20.4094 27.6137 22.4844 25.5089 23.3442ZM10.5405 17.4161L8.10995 15.9934C7.90254 15.875 7.81357 15.6971 7.81357 15.4599V8.93898C7.81357 5.7675 10.2441 3.36645 13.5343 3.36645C14.7793 3.36645 15.935 3.78154 16.9135 4.52249L11.0743 7.90166C10.7187 8.10907 10.5407 8.40544 10.5407 8.82054L10.5405 17.4161ZM15.7721 20.4394L12.2893 18.4832V14.3335L15.7721 12.3774L19.2548 14.3335V18.4832L15.7721 20.4394ZM18.01 29.4503C16.765 29.4503 15.6093 29.0352 14.6308 28.2942L20.47 24.9151C20.8257 24.7077 21.0035 24.4112 21.0035 23.9962V15.4003L23.4637 16.8231C23.6712 16.9415 23.7602 17.1194 23.7602 17.3565V23.8775C23.7602 27.049 21.2999 29.4503 18.01 29.4503ZM10.985 22.8405L5.32354 19.5799C3.69317 18.6314 2.59663 16.616 2.59663 14.6598C2.59663 12.3774 3.96009 10.3322 6.06448 9.47251V16.2305C6.06448 16.6456 6.24242 16.9421 6.59802 17.1494L14.0083 21.4472L11.5778 22.8405C11.3704 22.9589 11.1924 22.9589 10.985 22.8405ZM10.6592 27.7015C7.30978 27.7015 4.8495 25.182 4.8495 22.0697C4.8495 21.8326 4.87925 21.5954 4.90872 21.3583L10.7479 24.7374C11.1035 24.9448 11.4594 24.9448 11.8149 24.7374L19.2548 20.4396V23.2556C19.2548 23.4927 19.1658 23.6707 18.9583 23.789L13.2968 27.0495C12.5262 27.4941 11.6076 27.7015 10.6592 27.7015ZM18.01 31.2285C21.5965 31.2285 24.5901 28.6796 25.2722 25.3004C28.5918 24.4408 30.7259 21.3285 30.7259 18.1571C30.7259 16.0821 29.8368 14.0667 28.2361 12.6142C28.3844 11.9917 28.4734 11.3692 28.4734 10.747C28.4734 6.50845 25.0349 3.33669 21.063 3.33669C20.2629 3.33669 19.4921 3.45512 18.7215 3.72204C17.3875 2.41781 15.5497 1.58789 13.5343 1.58789C9.94772 1.58789 6.95418 4.13686 6.27217 7.51602C2.95251 8.37569 0.818359 11.4879 0.818359 14.6594C0.818359 16.7343 1.70749 18.7497 3.3081 20.2023C3.15992 20.8247 3.07095 21.4472 3.07095 22.0695C3.07095 26.308 6.50933 29.4797 10.4813 29.4797C11.2814 29.4797 12.0521 29.3613 12.8228 29.0944C14.1565 30.3986 15.9943 31.2285 18.01 31.2285Z" fill="white" style="fill:white;fill-opacity:1;"/>
</g>
</g>
<defs>
<clipPath id="clip0_1387_73525">
<rect width="32" height="32" fill="white" style="fill:white;fill-opacity:1;"/>
</clipPath>
<clipPath id="clip1_1387_73525">
<rect width="29.9076" height="29.9076" fill="white" style="fill:white;fill-opacity:1;" transform="translate(0.818359 1.4541)"/>
</clipPath>
</defs>
</svg>
