<svg width="37" height="22" viewBox="0 0 37 22" fill="none" xmlns="http://www.w3.org/2000/svg">
<rect width="37" height="22" fill="#4D4D4D" style="fill:#4D4D4D;fill:color(display-p3 0.3032 0.3032 0.3032);fill-opacity:1;"/>
<path d="M6.84 16V7.36H7.92L12.426 14.11V7.36H13.506V16H12.426L7.92 9.244V16H6.84ZM17.9918 16.18C17.3558 16.18 16.7998 16.04 16.3238 15.76C15.8518 15.476 15.4838 15.082 15.2198 14.578C14.9558 14.07 14.8238 13.478 14.8238 12.802C14.8238 12.094 14.9538 11.482 15.2138 10.966C15.4738 10.446 15.8358 10.046 16.2998 9.766C16.7678 9.482 17.3158 9.34 17.9438 9.34C18.5958 9.34 19.1498 9.49 19.6058 9.79C20.0658 10.09 20.4098 10.518 20.6378 11.074C20.8698 11.63 20.9698 12.292 20.9378 13.06H19.8578V12.676C19.8458 11.88 19.6838 11.286 19.3718 10.894C19.0598 10.498 18.5958 10.3 17.9798 10.3C17.3198 10.3 16.8178 10.512 16.4738 10.936C16.1298 11.36 15.9578 11.968 15.9578 12.76C15.9578 13.524 16.1298 14.116 16.4738 14.536C16.8178 14.956 17.3078 15.166 17.9438 15.166C18.3718 15.166 18.7438 15.068 19.0598 14.872C19.3758 14.676 19.6238 14.394 19.8038 14.026L20.8298 14.38C20.5778 14.952 20.1978 15.396 19.6898 15.712C19.1858 16.024 18.6198 16.18 17.9918 16.18ZM15.5978 13.06V12.202H20.3858V13.06H15.5978ZM23.4192 16L21.4392 9.514L22.5012 9.52L23.9472 14.26L25.4052 9.52H26.3472L27.7992 14.26L29.2512 9.52H30.3072L28.3272 16H27.4392L25.8732 11.074L24.3072 16H23.4192Z" fill="#D3D2CD" style="fill:#D3D2CD;fill:color(display-p3 0.8258 0.8230 0.8038);fill-opacity:1;"/>
</svg>
