<svg width="1388" height="215" viewBox="0 0 1388 215" fill="none" xmlns="http://www.w3.org/2000/svg">
<path d="M190.304 0.492188H133.212V138.464H190.304V0.492188Z" fill="#4D4D4D" style="fill:#4D4D4D;fill:color(display-p3 0.3032 0.3032 0.3032);fill-opacity:1;"/>
<path d="M57.0922 0.492188H0.000192642V78.9937L57.0922 138.464V0.492188Z" fill="#4D4D4D" style="fill:#4D4D4D;fill:color(display-p3 0.3032 0.3032 0.3032);fill-opacity:1;"/>
<path d="M57.0922 138.466H0.00019455V214.588H57.0922V138.466Z" fill="#4D4D4D" style="fill:#4D4D4D;fill:color(display-p3 0.3032 0.3032 0.3032);fill-opacity:1;"/>
<path d="M133.216 138.466H57.0929L102.291 195.558H133.216V138.466Z" fill="#4D4D4D" style="fill:#4D4D4D;fill:color(display-p3 0.3032 0.3032 0.3032);fill-opacity:1;"/>
<mask id="path-5-outside-1_3156_120912" maskUnits="userSpaceOnUse" x="242.083" y="-0.0322266" width="1146" height="196" fill="black">
<rect fill="white" x="242.083" y="-0.0322266" width="1146" height="196"/>
<path d="M247.083 4.96777H389.153V25.9762H329.541V188.791H306.695V25.9762H247.083V4.96777Z"/>
<path d="M382.056 121.827C382.056 108.172 384.682 96.1793 389.934 85.8502C395.361 75.521 402.889 67.5553 412.518 61.9531C422.147 56.1758 433.177 53.2871 445.607 53.2871C457.861 53.2871 468.716 55.8256 478.17 60.9027C487.623 65.9797 495.064 73.3326 500.491 82.9615C505.918 92.5904 508.807 103.882 509.157 116.838C509.157 118.763 508.982 121.827 508.632 126.029H404.64V127.867C404.99 140.997 409.017 151.501 416.72 159.38C424.423 167.258 434.49 171.197 446.92 171.197C456.548 171.197 464.689 168.833 471.342 164.106C478.17 159.205 482.721 152.464 484.997 143.886H506.794C504.168 157.541 497.602 168.746 487.098 177.499C476.594 186.078 463.726 190.367 448.495 190.367C435.19 190.367 423.548 187.566 413.569 181.964C403.59 176.186 395.799 168.133 390.197 157.804C384.77 147.3 382.056 135.307 382.056 121.827ZM486.836 108.172C485.785 96.792 481.496 87.951 473.968 81.6485C466.615 75.346 457.249 72.1947 445.869 72.1947C435.715 72.1947 426.787 75.521 419.083 82.1737C411.38 88.8264 407.004 97.4923 405.953 108.172H486.836Z"/>
<path d="M550.023 144.674C550.373 152.727 553.874 159.292 560.527 164.369C567.355 169.446 576.108 171.985 586.788 171.985C596.241 171.985 603.857 170.146 609.634 166.47C615.587 162.618 618.563 157.629 618.563 151.501C618.563 146.249 617.162 142.223 614.361 139.422C611.56 136.62 607.884 134.695 603.332 133.644C598.955 132.594 592.652 131.543 584.424 130.493C572.87 129.092 563.416 127.254 556.063 124.978C548.71 122.702 542.757 119.113 538.206 114.212C533.654 109.134 531.378 102.219 531.378 93.4657C531.378 85.5876 533.566 78.5847 537.943 72.4573C542.495 66.3298 548.622 61.603 556.325 58.2766C564.028 54.7752 572.694 53.0245 582.323 53.0245C598.08 53.0245 610.86 56.701 620.664 64.0539C630.643 71.4069 636.157 81.9111 637.208 95.5666H615.674C614.799 88.5638 611.385 82.7864 605.433 78.2346C599.48 73.6828 592.04 71.4069 583.111 71.4069C574.008 71.4069 566.655 73.3326 561.052 77.1842C555.45 80.8607 552.649 85.7626 552.649 91.8901C552.649 96.4419 553.962 99.9433 556.588 102.394C559.214 104.845 562.54 106.508 566.567 107.384C570.769 108.259 577.071 109.222 585.475 110.272C597.204 111.673 606.833 113.599 614.361 116.05C622.064 118.501 628.192 122.44 632.744 127.867C637.47 133.294 639.834 140.647 639.834 149.926C639.834 157.979 637.47 165.069 632.744 171.197C628.017 177.324 621.627 182.051 613.573 185.378C605.52 188.704 596.592 190.367 586.788 190.367C569.281 190.367 555.187 186.34 544.508 178.287C534.004 170.234 528.664 159.029 528.489 144.674H550.023Z"/>
<path d="M673.191 74.5581H649.031V54.8627H673.191V17.3102H694.724V54.8627H728.601V74.5581H694.724V153.602C694.724 159.205 695.775 163.231 697.876 165.682C700.152 167.958 704.003 169.096 709.43 169.096H732.802V188.791H708.117C695.512 188.791 686.496 185.99 681.069 180.388C675.817 174.786 673.191 165.945 673.191 153.865V74.5581Z"/>
<path d="M751.273 4.96777H780.159L845.285 157.541L909.624 4.96777H937.985V188.791H915.664V43.8333L854.739 188.791H834.519L773.594 43.8333V188.791H751.273V4.96777Z"/>
<path d="M1085.75 54.8627V188.791H1067.1L1064.21 170.934C1054.06 183.889 1039.79 190.367 1021.41 190.367C1005.48 190.367 992.698 185.465 983.069 175.661C973.44 165.857 968.626 150.451 968.626 129.443V54.8627H990.159V128.13C990.159 141.96 993.136 152.552 999.088 159.905C1005.22 167.083 1013.88 170.672 1025.09 170.672C1037.34 170.672 1046.88 166.295 1053.71 157.541C1060.71 148.788 1064.21 136.883 1064.21 121.827V54.8627H1085.75Z"/>
<path d="M1172.01 188.791L1242.13 4.96777H1269.18L1339.03 188.791H1314.61L1295.18 139.159H1215.08L1195.65 188.791H1172.01ZM1221.91 118.413H1288.35L1255 29.9153L1221.91 118.413Z"/>
<path d="M1359.83 4.96777H1382.68V188.791H1359.83V4.96777Z"/>
</mask>
<path d="M247.083 4.96777H389.153V25.9762H329.541V188.791H306.695V25.9762H247.083V4.96777Z" fill="#4D4D4D" style="fill:#4D4D4D;fill:color(display-p3 0.3032 0.3032 0.3032);fill-opacity:1;"/>
<path d="M382.056 121.827C382.056 108.172 384.682 96.1793 389.934 85.8502C395.361 75.521 402.889 67.5553 412.518 61.9531C422.147 56.1758 433.177 53.2871 445.607 53.2871C457.861 53.2871 468.716 55.8256 478.17 60.9027C487.623 65.9797 495.064 73.3326 500.491 82.9615C505.918 92.5904 508.807 103.882 509.157 116.838C509.157 118.763 508.982 121.827 508.632 126.029H404.64V127.867C404.99 140.997 409.017 151.501 416.72 159.38C424.423 167.258 434.49 171.197 446.92 171.197C456.548 171.197 464.689 168.833 471.342 164.106C478.17 159.205 482.721 152.464 484.997 143.886H506.794C504.168 157.541 497.602 168.746 487.098 177.499C476.594 186.078 463.726 190.367 448.495 190.367C435.19 190.367 423.548 187.566 413.569 181.964C403.59 176.186 395.799 168.133 390.197 157.804C384.77 147.3 382.056 135.307 382.056 121.827ZM486.836 108.172C485.785 96.792 481.496 87.951 473.968 81.6485C466.615 75.346 457.249 72.1947 445.869 72.1947C435.715 72.1947 426.787 75.521 419.083 82.1737C411.38 88.8264 407.004 97.4923 405.953 108.172H486.836Z" fill="#4D4D4D" style="fill:#4D4D4D;fill:color(display-p3 0.3032 0.3032 0.3032);fill-opacity:1;"/>
<path d="M550.023 144.674C550.373 152.727 553.874 159.292 560.527 164.369C567.355 169.446 576.108 171.985 586.788 171.985C596.241 171.985 603.857 170.146 609.634 166.47C615.587 162.618 618.563 157.629 618.563 151.501C618.563 146.249 617.162 142.223 614.361 139.422C611.56 136.62 607.884 134.695 603.332 133.644C598.955 132.594 592.652 131.543 584.424 130.493C572.87 129.092 563.416 127.254 556.063 124.978C548.71 122.702 542.757 119.113 538.206 114.212C533.654 109.134 531.378 102.219 531.378 93.4657C531.378 85.5876 533.566 78.5847 537.943 72.4573C542.495 66.3298 548.622 61.603 556.325 58.2766C564.028 54.7752 572.694 53.0245 582.323 53.0245C598.08 53.0245 610.86 56.701 620.664 64.0539C630.643 71.4069 636.157 81.9111 637.208 95.5666H615.674C614.799 88.5638 611.385 82.7864 605.433 78.2346C599.48 73.6828 592.04 71.4069 583.111 71.4069C574.008 71.4069 566.655 73.3326 561.052 77.1842C555.45 80.8607 552.649 85.7626 552.649 91.8901C552.649 96.4419 553.962 99.9433 556.588 102.394C559.214 104.845 562.54 106.508 566.567 107.384C570.769 108.259 577.071 109.222 585.475 110.272C597.204 111.673 606.833 113.599 614.361 116.05C622.064 118.501 628.192 122.44 632.744 127.867C637.47 133.294 639.834 140.647 639.834 149.926C639.834 157.979 637.47 165.069 632.744 171.197C628.017 177.324 621.627 182.051 613.573 185.378C605.52 188.704 596.592 190.367 586.788 190.367C569.281 190.367 555.187 186.34 544.508 178.287C534.004 170.234 528.664 159.029 528.489 144.674H550.023Z" fill="#4D4D4D" style="fill:#4D4D4D;fill:color(display-p3 0.3032 0.3032 0.3032);fill-opacity:1;"/>
<path d="M673.191 74.5581H649.031V54.8627H673.191V17.3102H694.724V54.8627H728.601V74.5581H694.724V153.602C694.724 159.205 695.775 163.231 697.876 165.682C700.152 167.958 704.003 169.096 709.43 169.096H732.802V188.791H708.117C695.512 188.791 686.496 185.99 681.069 180.388C675.817 174.786 673.191 165.945 673.191 153.865V74.5581Z" fill="#4D4D4D" style="fill:#4D4D4D;fill:color(display-p3 0.3032 0.3032 0.3032);fill-opacity:1;"/>
<path d="M751.273 4.96777H780.159L845.285 157.541L909.624 4.96777H937.985V188.791H915.664V43.8333L854.739 188.791H834.519L773.594 43.8333V188.791H751.273V4.96777Z" fill="#4D4D4D" style="fill:#4D4D4D;fill:color(display-p3 0.3032 0.3032 0.3032);fill-opacity:1;"/>
<path d="M1085.75 54.8627V188.791H1067.1L1064.21 170.934C1054.06 183.889 1039.79 190.367 1021.41 190.367C1005.48 190.367 992.698 185.465 983.069 175.661C973.44 165.857 968.626 150.451 968.626 129.443V54.8627H990.159V128.13C990.159 141.96 993.136 152.552 999.088 159.905C1005.22 167.083 1013.88 170.672 1025.09 170.672C1037.34 170.672 1046.88 166.295 1053.71 157.541C1060.71 148.788 1064.21 136.883 1064.21 121.827V54.8627H1085.75Z" fill="#4D4D4D" style="fill:#4D4D4D;fill:color(display-p3 0.3032 0.3032 0.3032);fill-opacity:1;"/>
<path d="M1172.01 188.791L1242.13 4.96777H1269.18L1339.03 188.791H1314.61L1295.18 139.159H1215.08L1195.65 188.791H1172.01ZM1221.91 118.413H1288.35L1255 29.9153L1221.91 118.413Z" fill="#4D4D4D" style="fill:#4D4D4D;fill:color(display-p3 0.3032 0.3032 0.3032);fill-opacity:1;"/>
<path d="M1359.83 4.96777H1382.68V188.791H1359.83V4.96777Z" fill="#4D4D4D" style="fill:#4D4D4D;fill:color(display-p3 0.3032 0.3032 0.3032);fill-opacity:1;"/>
<path d="M247.083 4.96777H389.153V25.9762H329.541V188.791H306.695V25.9762H247.083V4.96777Z" stroke="#4D4D4D" style="stroke:#4D4D4D;stroke:color(display-p3 0.3032 0.3032 0.3032);stroke-opacity:1;" stroke-width="9.93641" mask="url(#path-5-outside-1_3156_120912)"/>
<path d="M382.056 121.827C382.056 108.172 384.682 96.1793 389.934 85.8502C395.361 75.521 402.889 67.5553 412.518 61.9531C422.147 56.1758 433.177 53.2871 445.607 53.2871C457.861 53.2871 468.716 55.8256 478.17 60.9027C487.623 65.9797 495.064 73.3326 500.491 82.9615C505.918 92.5904 508.807 103.882 509.157 116.838C509.157 118.763 508.982 121.827 508.632 126.029H404.64V127.867C404.99 140.997 409.017 151.501 416.72 159.38C424.423 167.258 434.49 171.197 446.92 171.197C456.548 171.197 464.689 168.833 471.342 164.106C478.17 159.205 482.721 152.464 484.997 143.886H506.794C504.168 157.541 497.602 168.746 487.098 177.499C476.594 186.078 463.726 190.367 448.495 190.367C435.19 190.367 423.548 187.566 413.569 181.964C403.59 176.186 395.799 168.133 390.197 157.804C384.77 147.3 382.056 135.307 382.056 121.827ZM486.836 108.172C485.785 96.792 481.496 87.951 473.968 81.6485C466.615 75.346 457.249 72.1947 445.869 72.1947C435.715 72.1947 426.787 75.521 419.083 82.1737C411.38 88.8264 407.004 97.4923 405.953 108.172H486.836Z" stroke="#4D4D4D" style="stroke:#4D4D4D;stroke:color(display-p3 0.3032 0.3032 0.3032);stroke-opacity:1;" stroke-width="9.93641" mask="url(#path-5-outside-1_3156_120912)"/>
<path d="M550.023 144.674C550.373 152.727 553.874 159.292 560.527 164.369C567.355 169.446 576.108 171.985 586.788 171.985C596.241 171.985 603.857 170.146 609.634 166.47C615.587 162.618 618.563 157.629 618.563 151.501C618.563 146.249 617.162 142.223 614.361 139.422C611.56 136.62 607.884 134.695 603.332 133.644C598.955 132.594 592.652 131.543 584.424 130.493C572.87 129.092 563.416 127.254 556.063 124.978C548.71 122.702 542.757 119.113 538.206 114.212C533.654 109.134 531.378 102.219 531.378 93.4657C531.378 85.5876 533.566 78.5847 537.943 72.4573C542.495 66.3298 548.622 61.603 556.325 58.2766C564.028 54.7752 572.694 53.0245 582.323 53.0245C598.08 53.0245 610.86 56.701 620.664 64.0539C630.643 71.4069 636.157 81.9111 637.208 95.5666H615.674C614.799 88.5638 611.385 82.7864 605.433 78.2346C599.48 73.6828 592.04 71.4069 583.111 71.4069C574.008 71.4069 566.655 73.3326 561.052 77.1842C555.45 80.8607 552.649 85.7626 552.649 91.8901C552.649 96.4419 553.962 99.9433 556.588 102.394C559.214 104.845 562.54 106.508 566.567 107.384C570.769 108.259 577.071 109.222 585.475 110.272C597.204 111.673 606.833 113.599 614.361 116.05C622.064 118.501 628.192 122.44 632.744 127.867C637.47 133.294 639.834 140.647 639.834 149.926C639.834 157.979 637.47 165.069 632.744 171.197C628.017 177.324 621.627 182.051 613.573 185.378C605.52 188.704 596.592 190.367 586.788 190.367C569.281 190.367 555.187 186.34 544.508 178.287C534.004 170.234 528.664 159.029 528.489 144.674H550.023Z" stroke="#4D4D4D" style="stroke:#4D4D4D;stroke:color(display-p3 0.3032 0.3032 0.3032);stroke-opacity:1;" stroke-width="9.93641" mask="url(#path-5-outside-1_3156_120912)"/>
<path d="M673.191 74.5581H649.031V54.8627H673.191V17.3102H694.724V54.8627H728.601V74.5581H694.724V153.602C694.724 159.205 695.775 163.231 697.876 165.682C700.152 167.958 704.003 169.096 709.43 169.096H732.802V188.791H708.117C695.512 188.791 686.496 185.99 681.069 180.388C675.817 174.786 673.191 165.945 673.191 153.865V74.5581Z" stroke="#4D4D4D" style="stroke:#4D4D4D;stroke:color(display-p3 0.3032 0.3032 0.3032);stroke-opacity:1;" stroke-width="9.93641" mask="url(#path-5-outside-1_3156_120912)"/>
<path d="M751.273 4.96777H780.159L845.285 157.541L909.624 4.96777H937.985V188.791H915.664V43.8333L854.739 188.791H834.519L773.594 43.8333V188.791H751.273V4.96777Z" stroke="#4D4D4D" style="stroke:#4D4D4D;stroke:color(display-p3 0.3032 0.3032 0.3032);stroke-opacity:1;" stroke-width="9.93641" mask="url(#path-5-outside-1_3156_120912)"/>
<path d="M1085.75 54.8627V188.791H1067.1L1064.21 170.934C1054.06 183.889 1039.79 190.367 1021.41 190.367C1005.48 190.367 992.698 185.465 983.069 175.661C973.44 165.857 968.626 150.451 968.626 129.443V54.8627H990.159V128.13C990.159 141.96 993.136 152.552 999.088 159.905C1005.22 167.083 1013.88 170.672 1025.09 170.672C1037.34 170.672 1046.88 166.295 1053.71 157.541C1060.71 148.788 1064.21 136.883 1064.21 121.827V54.8627H1085.75Z" stroke="#4D4D4D" style="stroke:#4D4D4D;stroke:color(display-p3 0.3032 0.3032 0.3032);stroke-opacity:1;" stroke-width="9.93641" mask="url(#path-5-outside-1_3156_120912)"/>
<path d="M1172.01 188.791L1242.13 4.96777H1269.18L1339.03 188.791H1314.61L1295.18 139.159H1215.08L1195.65 188.791H1172.01ZM1221.91 118.413H1288.35L1255 29.9153L1221.91 118.413Z" stroke="#4D4D4D" style="stroke:#4D4D4D;stroke:color(display-p3 0.3032 0.3032 0.3032);stroke-opacity:1;" stroke-width="9.93641" mask="url(#path-5-outside-1_3156_120912)"/>
<path d="M1359.83 4.96777H1382.68V188.791H1359.83V4.96777Z" stroke="#4D4D4D" style="stroke:#4D4D4D;stroke:color(display-p3 0.3032 0.3032 0.3032);stroke-opacity:1;" stroke-width="9.93641" mask="url(#path-5-outside-1_3156_120912)"/>
</svg>
