<svg width="28" height="28" viewBox="0 0 28 28" fill="none" xmlns="http://www.w3.org/2000/svg">
<g id="Pinterest">
<circle id="Oval" cx="14" cy="14" r="14" fill="#7F7F7E" style="fill:#7F7F7E;fill:color(display-p3 0.4980 0.4980 0.4941);fill-opacity:1;"/>
<path id="Pinterest_2" fill-rule="evenodd" clip-rule="evenodd" d="M14.3162 9C9.6536 9 8 11.6723 8 13.9607C8 15.7072 9.4076 17.2991 10.163 17.6631C10.2422 17.701 10.3352 17.7033 10.4156 17.6695C10.4966 17.6351 10.5578 17.568 10.583 17.4858L11.0798 15.8839C11.1116 15.783 11.084 15.6733 11.0096 15.5975C10.8428 15.4283 10.4 14.9786 10.4 14.2459C10.4 12.2404 11.8448 11.0422 14.2652 11.0422C16.1348 11.0422 17.6 12.3215 17.6 13.9542C17.6 15.4569 16.3568 17.1702 15.2666 17.1702C13.9982 17.1702 13.9832 16.0507 13.982 16.0087C14.6954 15.3513 14.933 13.9612 14.933 13.648C14.9336 13.4631 14.9348 13.1195 14.6486 12.8552C14.3942 12.6207 13.9628 12.5017 13.3664 12.5017C11.8796 12.5017 11.483 13.6019 11.483 14.2523C11.483 14.7429 11.7872 15.3968 11.801 15.4143L10.3244 21.3445C10.3076 21.4297 10.1798 22.1962 10.7678 22.8933C10.8272 22.9633 10.9124 23 11 23C11.057 23 11.1152 22.9843 11.1662 22.951C11.4506 22.7667 11.9618 22.3887 12.1922 21.9272C12.4592 21.39 13.217 19.4837 13.6448 18.3952L13.6988 18.3415C13.7054 18.3468 14.441 18.9213 15.5828 18.9213C18.8432 18.9213 20 16.2485 20 13.9607C20 12.1179 18.803 9 14.3162 9Z" fill="#242424" style="fill:#242424;fill:color(display-p3 0.1400 0.1400 0.1400);fill-opacity:1;"/>
</g>
</svg>
